<svg width="1366" height="768" viewBox="0 0 1366 768" xmlns="http://www.w3.org/2000/svg"><title>1</title><g fill="none" fill-rule="evenodd"><path fill="#D8D8D8" d="M0 0h1366v768H0z"/><path d="M706 328.4V418c0 4.8 1.8 7.2 5.4 7.2 1.067 0 2.6-.167 4.6-.5 2-.333 3.533-.5 4.6-.5 8.667 0 13 4.333 13 13 0 4.533-1.267 8.167-3.8 10.9-2.533 2.733-5.867 4.1-10 4.1-.933 0-1.6-.067-2-.2l-12.2-1.4c-3.467-.4-9.533-.6-18.2-.6-8 0-13 .133-15 .4l-12 1.6c-.533.133-1.267.2-2.2.2-4.533 0-8.2-1.367-11-4.1-2.8-2.733-4.2-6.3-4.2-10.7 0-4 1.133-7.2 3.4-9.6 2.267-2.4 5.267-3.6 9-3.6 1.2 0 3.033.167 5.5.5 2.467.333 4.3.5 5.5.5 3.2 0 5.2-2.133 6-6.4.133-.933.2-4.4.2-10.4v-55.2c0-6.267-2.267-9.4-6.8-9.4-.8 0-2.267.133-4.4.4-2.667.667-4.933 1-6.8 1-7.733 0-11.6-4.467-11.6-13.4 0-4.533 1.4-8.167 4.2-10.9 2.8-2.733 6.533-4.1 11.2-4.1 2.267 0 5.7.333 10.3 1 4.6.667 8.033 1 10.3 1 2.8 0 6.667-.467 11.6-1.4 2.133-.4 4.333-.6 6.6-.6 3.6 0 6.067 1 7.4 3 .933 1.6 1.4 4.467 1.4 8.6z" fill="#9D9D9D"/></g></svg>