<svg width="1367" height="768" viewBox="0 0 1367 768" xmlns="http://www.w3.org/2000/svg"><title>2</title><g fill="none" fill-rule="evenodd"><path fill="#D8D8D8" d="M0 0h1367v768H0z"/><path d="M685.3 399.2c-12.133 3.6-20.067 6.667-23.8 9.2-3.733 2.533-6.067 6.467-7 11.8 6-7.2 13.6-10.8 22.8-10.8 6.667 0 13.567 2.7 20.7 8.1 7.133 5.4 12.233 8.1 15.3 8.1 2 0 4.267-1 6.8-3-8-1.6-12-6-12-13.2 0-4.133 1.5-7.633 4.5-10.5s6.7-4.3 11.1-4.3c5.733 0 10.467 2.333 14.2 7 3.733 4.667 5.6 10.533 5.6 17.6 0 9.333-3.233 17.467-9.7 24.4-6.467 6.933-14.033 10.4-22.7 10.4-9.067 0-18.6-3.933-28.6-11.8-6.933-5.467-11.467-8.2-13.6-8.2-1.333 0-2.6.667-3.8 2 .8 1.467 1.2 2.867 1.2 4.2 0 4.133-1.567 7.567-4.7 10.3-3.133 2.733-7.1 4.1-11.9 4.1-6.933 0-12.733-2.833-17.4-8.5-4.667-5.667-7-12.767-7-21.3 0-20.933 15.667-37.533 47-49.8 12-4.667 19.733-8.333 23.2-11 3.467-2.667 5.2-6.267 5.2-10.8 0-4-1.8-7.2-5.4-9.6-3.6-2.4-8.333-3.6-14.2-3.6-5.733 0-11.067 1.333-16 4 2.533 3.333 3.8 6.733 3.8 10.2 0 5.067-1.867 9.367-5.6 12.9-3.733 3.533-8.267 5.3-13.6 5.3-6 0-10.9-2-14.7-6-3.8-4-5.7-9.133-5.7-15.4 0-10.933 5.033-19.833 15.1-26.7 10.067-6.867 23.167-10.3 39.3-10.3 16.267 0 29.167 3.6 38.7 10.8 9.533 7.2 14.3 16.933 14.3 29.2 0 12.933-5.267 22.933-15.8 30-8.133 5.467-20 10.533-35.6 15.2z" fill="#9D9D9D"/></g></svg>