<svg width="1372" height="770" viewBox="0 0 1372 770" xmlns="http://www.w3.org/2000/svg"><title>3</title><g fill="none" fill-rule="evenodd"><path fill="#D8D8D8" d="M0 0h1372v770H0z"/><path d="M676.4 367l19.8-21.8h-28.6c-5.733 0-8.6 1.667-8.6 5 0 1.2.267 2.967.8 5.3.533 2.333.8 4.1.8 5.3 0 11.333-5.267 17-15.8 17-4.4 0-8-1.367-10.8-4.1-2.8-2.733-4.2-6.3-4.2-10.7 0-2.133.367-5.4 1.1-9.8.733-4.4 1.1-7.667 1.1-9.8 0-1.867-.267-4.567-.8-8.1-.533-3.533-.8-6.167-.8-7.9 0-6.4 3.733-9.6 11.2-9.6h1.2c8 .267 16.4.4 25.2.4l58.2-.4c4.267 0 7.2.9 8.8 2.7 1.6 1.8 2.4 5.1 2.4 9.9 0 6.933-2.467 13-7.4 18.2l-23.2 24.2c10.133 1.067 18.033 4.767 23.7 11.1 5.667 6.333 8.5 14.633 8.5 24.9 0 14.133-5.467 25.467-16.4 34-10.933 8.533-25.467 12.8-43.6 12.8-15.733 0-28.533-3.6-38.4-10.8-9.867-7.2-14.8-16.533-14.8-28 0-6.4 2-11.8 6-16.2 4-4.4 8.933-6.6 14.8-6.6 5.067 0 9.433 1.7 13.1 5.1 3.667 3.4 5.5 7.567 5.5 12.5 0 4.133-1.667 8.133-5 12 3.333 2.533 6.1 4.167 8.3 4.9 2.2.733 5.433 1.1 9.7 1.1 7.6 0 13.8-1.867 18.6-5.6 4.8-3.733 7.2-8.533 7.2-14.4 0-11.333-8.4-17.267-25.2-17.8-6.133-.267-9.2-3.467-9.2-9.6 0-5.2 2.267-10.267 6.8-15.2z" fill="#9D9D9D"/></g></svg>