<svg width="1366" height="768" viewBox="0 0 1366 768" xmlns="http://www.w3.org/2000/svg"><title>4</title><g fill="none" fill-rule="evenodd"><path fill="#D8D8D8" d="M0 0h1366v768H0z"/><path d="M719.2 330.8l-1 57.8h15.2c8 0 12 3.933 12 11.8 0 8.133-4.467 12.2-13.4 12.2h-13.8v3c0 3.733.333 6.267 1 7.6.933 2 3 3 6.2 3 .267 0 1.267-.133 3-.4 3.333-.533 4.933-.8 4.8-.8h1.2c3.067 0 5.567 1.167 7.5 3.5 1.933 2.333 2.9 5.367 2.9 9.1 0 4.267-1.233 7.733-3.7 10.4-2.467 2.667-5.567 4-9.3 4-2.533 0-6.4-.4-11.6-1.2-3.467-.533-9-.8-16.6-.8-9.467 0-15.933.2-19.4.6-8.133.933-13.133 1.4-15 1.4-4.4 0-8-1.3-10.8-3.9-2.8-2.6-4.2-5.967-4.2-10.1 0-8.533 4.933-12.8 14.8-12.8.133 0 3.2.333 9.2 1 1.333.133 2.6.2 3.8.2 4.667 0 7-3.4 7-10.2v-3h-56.6c-8.933 0-13.4-3.733-13.4-11.2 0-6.267 2.733-12.867 8.2-19.8l45.8-58.6c5.067-6.4 13.133-9.6 24.2-9.6 8.267 0 14.033 1.233 17.3 3.7 3.267 2.467 4.833 6.833 4.7 13.1zm-65 58.4h34.2l.6-44.4-34.8 44.4z" fill="#9D9D9D"/></g></svg>