<svg width="1366" height="768" viewBox="0 0 1366 768" xmlns="http://www.w3.org/2000/svg"><title>5</title><g fill="none" fill-rule="evenodd"><path fill="#D8D8D8" d="M0 0h1366v768H0z"/><path d="M667 351l-1.6 15c9.733-2.667 17.8-4 24.2-4 13.6 0 24.8 4.1 33.6 12.3 8.8 8.2 13.2 18.633 13.2 31.3 0 14.267-5.467 26-16.4 35.2-10.933 9.2-24.867 13.8-41.8 13.8-14 0-25.833-3.333-35.5-10-9.667-6.667-14.5-14.867-14.5-24.6 0-6.267 1.933-11.367 5.8-15.3s8.8-5.9 14.8-5.9c5.2 0 9.5 1.533 12.9 4.6 3.4 3.067 5.1 6.933 5.1 11.6 0 3.067-1.133 6.2-3.4 9.4 4.533 2.8 9.667 4.2 15.4 4.2 6.8 0 12.4-1.833 16.8-5.5s6.6-8.3 6.6-13.9c0-5.733-2.4-10.5-7.2-14.3-4.8-3.8-10.733-5.7-17.8-5.7-3.867 0-8.133.6-12.8 1.8-6.8 1.733-11.2 2.6-13.2 2.6-5.067 0-9.333-1.7-12.8-5.1-3.467-3.4-5.2-7.633-5.2-12.7 0-.4.067-1.133.2-2.2v-2.4L637 338c-.133-4.133.467-9.667 1.8-16.6 1.333-2.933 4.733-4.4 10.2-4.4-.133 0 3 .133 9.4.4s13.067.333 20 .2l34.8-.8h8.6c5.867 0 8.8 2.467 8.8 7.4 0 2-.1 3.667-.3 5-.2 1.333-.233 3.067-.1 5.2l.6 10.6v1.4c0 4.133-1.367 7.533-4.1 10.2-2.733 2.667-6.233 4-10.5 4-6.667 0-11.067-3.467-13.2-10.4-.667-2.267-1.567-3.667-2.7-4.2-1.133-.533-3.033-.8-5.7-.8h-22c-2.267 0-3.7.333-4.3 1-.6.667-1.033 2.267-1.3 4.8z" fill="#9D9D9D"/></g></svg>